<?xml version="1.0" encoding="UTF-8"?>
<svg width="32" height="32" viewBox="0 0 32 32" fill="none" xmlns="http://www.w3.org/2000/svg">
  <!-- Simple, elegant cat silhouette -->
  <path fill="#222222" d="M16 2C8.268 2 2 8.268 2 16s6.268 14 14 14 14-6.268 14-14S23.732 2 16 2zm0 25.5c-6.351 0-11.5-5.149-11.5-11.5S9.649 4.5 16 4.5 27.5 9.649 27.5 16 22.351 27.5 16 27.5z"/>
  <path fill="#222222" d="M20.5 11c-1.2 0-2.25.6-3 1.5-.75-.9-1.8-1.5-3-1.5-2.2 0-4 1.8-4 4 0 4.5 7 8.5 7 8.5s7-4 7-8.5c0-2.2-1.8-4-4-4z"/>
</svg>
